<svg viewBox="0 0 71.98 45.87" xmlns="http://www.w3.org/2000/svg" xmlns:xlink="http://www.w3.org/1999/xlink" id="Carnegie_Mellon_University" overflow="hidden"><style>
.MsftOfcResponsive_Fill_a4a1ce {
 fill:#A4A1CE; 
}
</style>
<defs></defs><path d="M56.07 11.96 56.07 4.91 52.81 4.91 52.81 5.41 53.73 5.41 53.73 11.96 52.55 11.96 52.55 12.42 57.25 12.42 57.25 11.96 56.07 11.96Z" class="cls-1 MsftOfcResponsive_Fill_a4a1ce" fill="#A4A1CE"/><path d="M9.7 0.36 9.28 0.36C9.26 0.72 9.07 0.88 8.71 0.88 7.98 0.88 6.93 0 5.68 0 2.14 0 0 3.49 0 6.56 0 9.63 2.04 12.7 5.45 12.7 7.52 12.7 8.3 11.72 8.85 11.72 9.21 11.72 9.28 12.04 9.28 12.43L9.75 12.43 9.75 8.2 9.28 8.2 9.18 8.79C8.94 10.19 7.85 12.25 5.63 12.25 3.66 12.25 2.9 10.55 2.9 6.35 2.9 1.95 3.93 0.47 5.68 0.47 7.65 0.47 9 2.68 9.28 4.43L9.7 4.43 9.7 0.36Z" class="cls-1 MsftOfcResponsive_Fill_a4a1ce" fill="#A4A1CE"/><path d="M15.75 10.4C15.72 11.3 15.21 12.04 14.41 12.04 13.25 12.04 13.2 11.06 13.2 10.32 13.2 9.42 13.3 8.82 14.41 8.7L15.75 8.56 15.75 10.39ZM18.86 10.96C18.86 11.4 18.57 11.91 18.38 11.91 18.07 11.91 18 11.59 18 11.06L18 7.15C18 5.21 16.18 4.73 14.43 4.73 12.68 4.73 11.48 5.56 11.48 6.52 11.48 7.12 11.82 7.63 12.59 7.63 13.24 7.63 13.63 7.2 13.63 6.61 13.63 5.74 12.73 5.73 12.73 5.71 12.73 5.32 13.73 5.2 14.31 5.2 15.59 5.2 15.76 5.67 15.76 6.69L15.76 8.12 14.09 8.26C12.54 8.38 10.86 8.79 10.86 10.56 10.86 12.04 12.19 12.64 13.5 12.64 14.16 12.64 15.34 12.39 15.78 11.57 16.09 12.28 16.72 12.64 17.48 12.64 18.59 12.64 19.3 11.98 19.3 10.97L18.87 10.97Z" class="cls-1 MsftOfcResponsive_Fill_a4a1ce" fill="#A4A1CE"/><path d="M57.9 41.22 57.9 34.17 54.38 34.17 54.38 34.67 55.55 34.67 55.55 41.22 54.38 41.22 54.38 41.68 59.07 41.68 59.07 41.22 57.9 41.22Z" class="cls-1 MsftOfcResponsive_Fill_a4a1ce" fill="#A4A1CE"/><path d="M13.71 15.73 13.71 15.25C13.71 15.25 9.83 15.25 9.83 15.25L7.01 23.32 4.27 15.24 0 15.24 0 15.73 1.15 15.73 1.15 25.45C1.15 26.18 0.97 26.75 0 26.75L0 27.22 2.94 27.22 2.94 26.75 2.89 26.75C1.97 26.75 1.61 26.68 1.61 25.3L1.61 15.64 1.64 15.64 5.71 27.21 6.17 27.21 10.14 15.84 10.17 15.84 10.17 26.74 9.03 26.74 9.03 27.21 13.7 27.21 13.7 26.74 12.59 26.74 12.59 15.73 13.7 15.73Z" class="cls-1 MsftOfcResponsive_Fill_a4a1ce" fill="#A4A1CE"/><path d="M16.43 22.64 16.43 21.5C16.43 20.36 16.92 20 17.5 20 18.32 20 18.57 20.56 18.57 21.5L18.57 22.64 16.43 22.64ZM16.43 23.1 21.13 23.1C21.11 21.26 19.41 19.49 17.62 19.53 15.61 19.53 13.88 21.27 13.88 23.56 13.88 25.85 15.5 27.42 17.68 27.42 19.86 27.42 20.81 26.13 21.19 24.44L20.73 24.44C20.36 26.02 19.53 26.92 18.2 26.92 16.62 26.92 16.45 25.68 16.45 24.52L16.45 23.09Z" class="cls-1 MsftOfcResponsive_Fill_a4a1ce" fill="#A4A1CE"/><path d="M35.99 37.1 35.99 35.96C35.99 34.82 36.48 34.46 37.06 34.46 37.88 34.46 38.13 35.02 38.13 35.96L38.13 37.1 35.99 37.1ZM35.99 37.56 40.69 37.56C40.67 35.72 38.97 33.95 37.18 33.99 35.17 33.99 33.44 35.73 33.44 38.02 33.44 40.31 35.06 41.88 37.24 41.88 39.42 41.88 40.37 40.59 40.75 38.9L40.29 38.9C39.92 40.48 39.09 41.38 37.76 41.38 36.18 41.38 36.01 40.14 36.01 38.98L36.01 37.55Z" class="cls-1 MsftOfcResponsive_Fill_a4a1ce" fill="#A4A1CE"/><path d="M21.16 15.26 21.16 15.69 22.34 15.69 22.34 26.73 21.16 26.73 21.16 27.22 25.86 27.22 25.86 26.73 24.68 26.73 24.68 15.26 21.16 15.26Z" class="cls-1 MsftOfcResponsive_Fill_a4a1ce" fill="#A4A1CE"/><path d="M26.19 15.26 26.19 15.69 27.36 15.69 27.36 26.73 26.19 26.73 26.19 27.22 30.88 27.22 30.88 26.73 29.71 26.73 29.71 15.26 26.19 15.26Z" class="cls-1 MsftOfcResponsive_Fill_a4a1ce" fill="#A4A1CE"/><path d="M36.28 25.15C36.28 26.43 35.75 26.95 34.88 26.95 34.01 26.95 33.48 26.42 33.48 25.15L33.48 21.8C33.48 20.52 34.01 20 34.88 20 35.75 20 36.28 20.53 36.28 21.8L36.28 25.15ZM38.93 23.47C38.93 21.14 37.13 19.52 34.88 19.52 32.63 19.52 30.83 21.14 30.83 23.47 30.83 25.8 32.63 27.42 34.88 27.42 37.13 27.42 38.93 25.8 38.93 23.47" class="cls-1 MsftOfcResponsive_Fill_a4a1ce" fill="#A4A1CE"/><path d="M0 30.14 1.19 30.14 1.19 37.7C1.19 40.34 3.01 41.94 5.79 41.94 8.92 41.94 10.28 40.29 10.28 37.79L10.28 31.33C10.28 30.34 10.55 30.15 11.17 30.15L11.51 30.15 11.51 29.69 8.52 29.69 8.52 30.15 8.73 30.15C9.6 30.15 9.72 30.41 9.72 31.4L9.72 37.97C9.72 40.29 8.28 41.34 6.83 41.34 4.35 41.34 3.85 39.67 3.7 37.49L3.7 30.15 4.82 30.15 4.82 29.69 0 29.69 0 30.15Z" class="cls-1 MsftOfcResponsive_Fill_a4a1ce" fill="#A4A1CE"/><path d="M29.49 41.87 29.95 41.87 32.47 35.91C32.98 34.8 33.25 34.66 33.64 34.64L33.79 34.64 33.79 34.17 31.13 34.17 31.13 34.64 31.45 34.64C31.94 34.64 32.17 34.61 32.17 35.05 32.17 35.32 32.08 35.59 31.88 36.08L30.72 38.8 28.87 34.63 29.81 34.63 29.81 34.16 25.54 34.16 25.54 34.63 26.34 34.63 29.47 41.85Z" class="cls-1 MsftOfcResponsive_Fill_a4a1ce" fill="#A4A1CE"/><path d="M48.45 41.87 48.85 41.87C48.93 41.6 49.11 41.46 49.45 41.46 49.89 41.46 50.42 41.87 51.37 41.87 52.99 41.87 54.09 40.47 54.09 39.08 54.09 37 52.66 36.85 50.84 36.59 49.89 36.45 49.35 36.32 49.35 35.57 49.35 34.77 50.05 34.43 50.97 34.43 52.25 34.43 52.74 35.28 53.17 36.38L53.57 36.38 53.57 33.96 53.18 33.96C53.18 34.16 53 34.33 52.68 34.33 52.13 34.33 51.69 33.96 50.91 33.96 49.21 33.96 48.37 35.41 48.37 36.5 48.37 38.7 50.04 38.88 51.33 39.04 52.56 39.19 53 39.27 53 40.05 53 40.95 52.25 41.36 51.33 41.36 50.04 41.36 49.15 40.24 48.84 39L48.44 39 48.44 41.86Z" class="cls-1 MsftOfcResponsive_Fill_a4a1ce" fill="#A4A1CE"/><path d="M24.93 41.22 24.93 34.17 21.41 34.17 21.41 34.67 22.59 34.67 22.59 41.22 21.41 41.22 21.41 41.68 26.11 41.68 26.11 41.22 24.93 41.22Z" class="cls-1 MsftOfcResponsive_Fill_a4a1ce" fill="#A4A1CE"/><path d="M22.59 31.82C22.59 32.47 23.11 32.99 23.76 32.99 24.41 32.99 24.93 32.47 24.93 31.82 24.93 31.17 24.41 30.65 23.76 30.65 23.11 30.65 22.59 31.17 22.59 31.82" class="cls-1 MsftOfcResponsive_Fill_a4a1ce" fill="#A4A1CE"/><path d="M55.55 31.82C55.55 32.47 56.07 32.99 56.72 32.99 57.37 32.99 57.89 32.47 57.89 31.82 57.89 31.17 57.37 30.65 56.72 30.65 56.07 30.65 55.55 31.17 55.55 31.82" class="cls-1 MsftOfcResponsive_Fill_a4a1ce" fill="#A4A1CE"/><path d="M39.33 7.84 39.33 6.7C39.33 5.56 39.82 5.2 40.4 5.2 41.22 5.2 41.47 5.76 41.47 6.7L41.47 7.84 39.33 7.84ZM39.33 8.3 44.03 8.3C44.01 6.46 42.31 4.69 40.52 4.73 38.51 4.73 36.78 6.47 36.78 8.76 36.78 11.05 38.4 12.62 40.58 12.62 42.76 12.62 43.71 11.33 44.09 9.64L43.63 9.64C43.26 11.22 42.43 12.12 41.1 12.12 39.52 12.12 39.35 10.88 39.35 9.72L39.35 8.29Z" class="cls-1 MsftOfcResponsive_Fill_a4a1ce" fill="#A4A1CE"/><path d="M59.88 7.84 59.88 6.7C59.88 5.56 60.37 5.2 60.95 5.2 61.56 5.2 62.02 5.55 62.02 6.7L62.02 7.84 59.88 7.84ZM59.88 8.3 64.58 8.3C64.56 6.46 62.86 4.69 61.07 4.73 59.06 4.73 57.33 6.47 57.33 8.76 57.33 11.05 58.95 12.62 61.13 12.62 63.31 12.62 64.26 11.33 64.64 9.64L64.18 9.64C63.81 11.22 62.98 12.12 61.65 12.12 60.07 12.12 59.9 10.88 59.9 9.72L59.9 8.29Z" class="cls-1 MsftOfcResponsive_Fill_a4a1ce" fill="#A4A1CE"/><path d="M19.9 41.22 19.9 36.62C19.9 34.78 19.12 33.92 17.5 33.92 16.36 33.92 15.2 34.57 14.74 35.56L14.74 35.56 14.74 34.18 11.22 34.18 11.22 34.64 12.39 34.64 12.39 41.21 11.22 41.21 11.22 41.67 15.75 41.67 15.75 41.21 14.75 41.21 14.75 36.72C14.9 36.09 15.7 34.63 16.63 34.63 17.25 34.63 17.56 34.84 17.56 35.99L17.56 41.22 16.59 41.22 16.59 41.68 21.08 41.68 21.08 41.22 19.91 41.22Z" class="cls-1 MsftOfcResponsive_Fill_a4a1ce" fill="#A4A1CE"/><path d="M47.61 26.76 47.61 22.16C47.61 20.32 46.83 19.46 45.21 19.46 44.07 19.46 42.91 20.11 42.45 21.1L42.45 21.1 42.45 19.72 38.93 19.72 38.93 20.18 40.1 20.18 40.1 26.75 38.93 26.75 38.93 27.21 43.46 27.21 43.46 26.75 42.46 26.75 42.46 22.26C42.61 21.63 43.41 20.17 44.34 20.17 44.96 20.17 45.27 20.38 45.27 21.53L45.27 26.76 44.3 26.76 44.3 27.22 48.79 27.22 48.79 26.76 47.62 26.76Z" class="cls-1 MsftOfcResponsive_Fill_a4a1ce" fill="#A4A1CE"/><path d="M35.59 11.96 35.59 7.37C35.59 5.53 34.81 4.67 33.19 4.67 32.05 4.67 30.89 5.32 30.43 6.31L30.43 6.31 30.43 4.93 26.91 4.93 26.91 5.39 28.08 5.39 28.08 11.96 26.91 11.96 26.91 12.42 31.44 12.42 31.44 11.96 30.44 11.96 30.44 7.47C30.59 6.84 31.39 5.38 32.32 5.38 32.94 5.38 33.25 5.59 33.25 6.74L33.25 11.97 32.28 11.97 32.28 12.43 36.77 12.43 36.77 11.97 35.6 11.97Z" class="cls-1 MsftOfcResponsive_Fill_a4a1ce" fill="#A4A1CE"/><path d="M53.73 2.59C53.73 3.24 54.25 3.76 54.9 3.76 55.55 3.76 56.07 3.24 56.07 2.59 56.07 1.94 55.55 1.42 54.9 1.42 54.25 1.42 53.73 1.94 53.73 2.59" class="cls-1 MsftOfcResponsive_Fill_a4a1ce" fill="#A4A1CE"/><path d="M69.32 34.17 69.32 34.66C70.05 34.66 70.36 34.73 70.36 35.05 70.36 35.32 70.27 35.59 70.07 36.08L68.91 38.8 67.06 34.65 68.03 34.65 68.03 34.16 62.16 34.16 62.16 30.51 61.85 30.51C61.85 32.31 60.62 34.17 58.91 34.17L58.91 34.66 59.81 34.66 59.81 39.93C59.81 41.55 61.2 41.87 61.68 41.87 62.72 41.87 63.42 41.45 63.94 40.56L63.58 40.36C63.38 40.67 63.1 41.07 62.68 41.07 62.34 41.07 62.16 40.83 62.16 40.27L62.16 34.66 64.53 34.66 67.64 41.83 66.56 44.37 66.56 44.37C66.56 44.37 66.56 44.37 66.56 44.37L66.56 44.37C66.56 44.37 66.49 44.45 66.43 44.45 66.37 44.45 66.32 44.41 66.3 44.35 66.3 44.35 66.3 44.35 66.3 44.35 66.16 43.86 65.72 43.5 65.18 43.5 64.53 43.5 64.01 44.02 64.01 44.67 64.01 45.13 64.27 45.52 64.65 45.71 64.65 45.71 64.65 45.71 64.65 45.71 64.66 45.71 64.67 45.72 64.69 45.73 64.71 45.74 64.74 45.75 64.76 45.76 64.89 45.81 65.03 45.85 65.19 45.85 66.18 45.93 66.68 45.2 67.03 44.46 67.11 44.29 67.18 44.12 67.25 43.96 67.4 43.6 67.66 42.98 67.97 42.26L67.97 42.26C67.97 42.26 68.27 41.57 68.27 41.57L68.27 41.57C68.27 41.57 70.66 35.91 70.66 35.91 71.17 34.8 71.37 34.66 71.99 34.66L71.99 34.66 71.99 34.17 69.33 34.17Z" class="cls-1 MsftOfcResponsive_Fill_a4a1ce" fill="#A4A1CE"/><path d="M25.19 4.65C24.1 4.65 23.27 5.4 22.94 6.25L22.91 6.25 22.91 4.95 19.42 4.95 19.42 5.43 20.59 5.43 20.59 11.98 19.42 11.98 19.42 12.45 24.51 12.45 24.51 11.98 22.94 11.98 22.94 8.31C22.94 7.22 23.23 6.09 23.95 5.48 23.99 5.45 24.05 5.44 24.1 5.47 24.16 5.5 24.18 5.56 24.18 5.61L24.18 5.61C24.13 5.74 24.1 5.9 24.09 6.1 24.07 6.72 24.58 7.21 25.25 7.21 26.07 7.21 26.54 6.61 26.54 5.97 26.54 5.15 26 4.66 25.2 4.66Z" class="cls-1 MsftOfcResponsive_Fill_a4a1ce" fill="#A4A1CE"/><path d="M50.81 5.21C50.81 5.21 50.89 5.18 50.91 5.21 50.93 5.24 50.94 5.27 50.91 5.3L50.91 5.3C50.81 5.48 50.77 5.69 50.85 5.93 50.93 6.17 51.13 6.34 51.36 6.39 51.85 6.5 52.27 6.14 52.27 5.68 52.27 5.38 52.08 5.15 51.87 5.02 51.66 4.89 51.4 4.82 51.12 4.82 50.67 4.82 50.2 5.06 49.87 5.35 49.87 5.35 49.87 5.35 49.87 5.35 49.79 5.29 49.71 5.24 49.63 5.19 49.16 4.92 48.55 4.74 47.74 4.74 46.31 4.74 44.78 5.68 44.78 7.22 44.78 8.16 45.29 8.89 46.19 9.3L46.19 9.33C45.53 9.41 44.49 9.87 44.49 11.29 44.49 12.14 44.88 12.79 45.6 12.99L45.6 13.02C44.92 13.21 44.14 13.89 44.14 14.71 44.14 15.97 45.62 16.94 47.51 16.94 49.88 16.94 51.42 15.34 51.42 13.26 51.42 11.61 50.6 10.86 48.94 10.89L46.11 10.89C45.68 10.89 45.4 10.87 45.4 10.41 45.4 9.99 46.05 9.53 46.7 9.53 46.81 9.53 47 9.62 47.05 9.63 47.26 9.7 47.48 9.73 47.75 9.73 49.21 9.73 50.78 8.9 50.78 7.28 50.78 6.78 50.56 6.1 50.16 5.67 50.14 5.64 50.14 5.6 50.16 5.58 50.32 5.45 50.51 5.34 50.6 5.29 50.67 5.25 50.73 5.22 50.8 5.2L50.8 5.2ZM48.55 13.04C50.25 13.04 50.7 13.11 50.7 14.15 50.7 15.39 49.18 16.53 47.46 16.53 45.93 16.53 45.19 15.59 45.16 14.77 45.16 14.02 45.53 13.53 45.99 13.03L48.55 13.03ZM48.84 7.23C48.84 9.21 48.38 9.27 47.77 9.27 47.09 9.27 46.73 9.14 46.73 7.17 46.73 5.79 46.88 5.2 47.77 5.2 48.57 5.2 48.83 5.25 48.84 7.21L48.84 7.21Z" class="cls-1 MsftOfcResponsive_Fill_a4a1ce" fill="#A4A1CE"/><path d="M46.65 33.87C45.56 33.87 44.73 34.62 44.4 35.47L44.37 35.47 44.37 34.17 40.88 34.17 40.88 34.65 42.05 34.65 42.05 41.2 40.88 41.2 40.88 41.67 45.97 41.67 45.97 41.2 44.4 41.2 44.4 37.53C44.4 36.44 44.69 35.32 45.4 34.7 45.44 34.67 45.5 34.66 45.55 34.69 45.61 34.72 45.63 34.78 45.63 34.83L45.63 34.83C45.58 34.97 45.55 35.12 45.54 35.32 45.52 35.94 46.03 36.43 46.7 36.43 47.52 36.43 47.99 35.83 47.99 35.19 47.99 34.37 47.45 33.88 46.65 33.88Z" class="cls-1 MsftOfcResponsive_Fill_a4a1ce" fill="#A4A1CE"/></svg>