<svg version="1.1" id="Layer_1" xmlns="http://www.w3.org/2000/svg" xmlns:xlink="http://www.w3.org/1999/xlink" x="0px"
	y="0px" width="100%" viewBox="0 0 935 467" enable-background="new 0 0 935 467" xml:space="preserve">
	<path fill="none" opacity="1.000000" stroke="none" d="
M642.000000,468.000000 C428.000000,468.000000 214.500000,468.000000 1.000000,468.000000 
	C1.000000,312.333344 1.000000,156.666672 1.000000,1.000000 
	C312.666656,1.000000 624.333313,1.000000 936.000000,1.000000 
	C936.000000,156.666672 936.000000,312.333344 936.000000,468.000000 
	C838.166687,468.000000 740.333313,468.000000 642.000000,468.000000 
M923.073792,180.258804 
	C854.149841,180.258804 785.225891,180.258804 716.368530,180.258804 
	C716.368530,203.447083 716.368530,225.999481 716.368530,248.933502 
	C739.343506,248.933502 761.941284,248.933502 785.105835,248.933502 
	C785.105835,320.018982 785.105835,390.720612 785.105835,461.473328 
	C808.898132,461.473328 832.116882,461.473328 855.942993,461.473328 
	C855.942993,390.419220 855.942993,319.726349 855.942993,248.843323 
	C859.207642,248.843323 861.864136,248.851822 864.520508,248.841949 
	C884.343506,248.768326 904.166565,248.691071 924.792114,248.383987 
	C924.908386,247.906067 925.125793,247.428238 925.126343,246.950195 
	C925.150024,225.729416 925.169739,204.508560 925.111816,183.287964 
	C925.109253,182.344849 924.379211,181.403748 923.073792,180.258804 
M79.261612,460.103851 
	C79.285011,434.684174 79.339394,409.264465 79.323074,383.844818 
	C79.306854,358.592804 79.219521,333.340820 79.791023,308.278046 
	C80.586815,309.312317 81.470421,310.290955 82.165787,311.388824 
	C112.987938,360.053314 143.821671,408.710571 174.535522,457.443359 
	C176.509567,460.575531 178.464966,461.995758 182.383606,461.945953 
	C201.874207,461.698059 221.369659,461.832458 240.863403,461.832275 
	C242.474838,461.832275 244.086288,461.832306 245.778900,461.832306 
	C245.778900,367.702271 245.778900,274.171692 245.778900,180.484924 
	C222.378265,180.484924 199.297302,180.484924 175.592194,180.484924 
	C175.592194,229.720459 175.592194,278.698639 175.592194,329.080627 
	C173.832870,326.480103 172.887573,325.155884 172.016434,323.784546 
	C142.468414,277.269806 112.902855,230.766144 83.445770,184.193878 
	C81.657845,181.367126 79.861290,180.098877 76.360283,180.130234 
	C55.535309,180.316910 34.707775,180.205566 13.881259,180.258209 
	C12.347099,180.262085 10.814209,180.768112 9.039452,181.945847 
	C9.027037,273.630463 9.014285,365.315094 9.008823,456.999725 
	C9.008784,457.661682 9.108768,458.323639 9.192686,459.800140 
	C10.591177,460.477448 11.986097,461.736145 13.388701,461.744751 
	C34.029228,461.871521 54.670815,461.846191 75.311996,461.795624 
	C76.511024,461.792694 77.708763,461.264404 79.261612,460.103851 
M347.504211,393.166656 
	C342.578156,393.166656 337.652130,393.166656 332.594666,393.166656 
	C332.594666,380.033630 332.594666,367.603729 332.594666,354.570007 
	C367.746948,354.570007 402.654785,354.570007 437.535034,354.570007 
	C437.535034,331.402374 437.535034,308.841858 437.535034,285.882263 
	C402.405975,285.882263 367.638123,285.882263 332.632233,285.882263 
	C332.632233,273.403870 332.632233,261.329315 332.632233,248.686127 
	C367.817383,248.686127 402.717529,248.686127 437.492340,248.686127 
	C437.492340,225.565308 437.492340,203.016129 437.492340,180.516235 
	C378.821686,180.516235 320.557800,180.516235 262.242188,180.516235 
	C262.242188,274.369446 262.242188,367.924347 262.242188,461.409058 
	C320.966583,461.409058 379.341064,461.409058 437.631714,461.409058 
	C437.631714,438.542999 437.631714,416.103485 437.631714,393.166687 
	C407.745911,393.166687 378.124146,393.166687 347.504211,393.166656 
M524.926331,310.590393 
	C526.153503,312.570404 527.209900,314.685669 528.646362,316.500000 
	C531.038879,319.522003 530.833191,322.040161 528.778076,325.386993 
	C501.773438,369.364471 474.931641,413.441956 448.064758,457.503967 
	C447.333893,458.702576 446.779480,460.008759 445.849213,461.843933 
	C448.038635,461.843933 449.505920,461.843933 450.973206,461.843933 
	C474.298767,461.843994 497.624969,461.758636 520.949219,461.933502 
	C524.572388,461.960663 526.630676,460.813446 528.534302,457.776825 
	C556.211487,413.625702 583.967041,369.523499 611.847900,325.500824 
	C613.912415,322.241058 614.096252,320.020569 611.951294,316.651886 
	C583.783691,272.415039 555.765808,228.082733 527.816711,183.707336 
	C526.041992,180.889618 523.982422,180.126328 520.858826,180.139725 
	C497.367065,180.240616 473.874695,180.188477 450.382507,180.208633 
	C449.006378,180.209808 447.630432,180.423187 445.651001,180.588089 
	C472.223358,224.143829 498.398254,267.048126 524.926331,310.590393 
M290.932404,88.499512 
	C290.932404,67.120766 290.932404,45.742023 290.932404,24.363277 
	C291.339294,24.322361 291.746185,24.281446 292.153107,24.240530 
	C293.429535,31.029222 294.720154,37.815285 295.979919,44.607067 
	C301.686127,75.371384 307.360687,106.141655 313.163391,136.887741 
	C313.410187,138.195465 314.792511,140.299637 315.685577,140.320358 
	C326.113281,140.562271 336.548615,140.475342 347.173218,140.475342 
	C354.401764,101.601242 361.524628,63.295536 368.647491,24.989832 
	C369.142548,25.033257 369.637634,25.076679 370.132690,25.120104 
	C370.132690,63.428383 370.132690,101.736664 370.132690,140.102570 
	C381.629761,140.102570 392.332031,140.102570 403.405365,140.102570 
	C402.438690,96.320496 401.480957,52.943382 400.520752,9.455231 
	C382.346802,9.455231 364.778290,9.455231 346.934509,9.455231 
	C341.653259,42.094395 336.410339,74.496849 331.167389,106.899307 
	C330.729523,106.890060 330.291656,106.880814 329.853790,106.871567 
	C324.601959,74.412392 319.350098,41.953217 314.089417,9.439323 
	C296.099609,9.439323 278.514221,9.439323 260.450470,9.439323 
	C259.523682,53.178539 258.602478,96.652969 257.680267,140.177155 
	C269.031189,140.177155 279.611023,140.177155 290.932434,140.177155 
	C290.932434,123.072929 290.932434,106.286270 290.932404,88.499512 
M797.818054,92.500031 
	C797.818054,64.900566 797.818054,37.301098 797.818054,9.500579 
	C786.737427,9.500579 776.195068,9.500579 765.251648,9.500579 
	C765.835815,43.471199 766.414124,77.103386 766.992371,110.735580 
	C765.842407,109.808197 765.414062,108.778564 765.103882,107.714493 
	C756.022949,76.570999 746.887451,45.443066 737.968872,14.253116 
	C736.880005,10.445045 735.467407,8.917457 731.232483,9.041511 
	C719.249756,9.392519 707.250183,9.165429 695.257202,9.166020 
	C692.839844,9.166140 690.422485,9.166038 687.957275,9.166038 
	C687.957275,52.837894 687.957275,95.743462 687.957275,138.876770 
	C698.622803,138.876770 709.020508,138.876770 719.941833,138.876770 
	C719.334167,103.761627 718.731079,68.908722 718.127930,34.055817 
	C718.426270,34.031536 718.724609,34.007256 719.022949,33.982979 
	C729.663391,68.954887 740.303833,103.926788 750.903198,138.763718 
	C766.685242,138.763718 782.076660,138.763718 797.357178,138.763718 
	C797.569519,138.086243 797.749451,137.779053 797.750183,137.471451 
	C797.782532,122.814331 797.799438,108.157188 797.818054,92.500031 
M560.033569,115.251129 
	C562.476685,129.654724 571.208984,138.244858 584.991028,142.039642 
	C595.915894,145.047729 607.058289,145.342941 618.177246,143.649750 
	C641.319519,140.125687 651.428101,128.128815 651.438721,104.622368 
	C651.452209,74.642937 651.441833,44.663494 651.441711,14.684058 
	C651.441711,12.928881 651.441650,11.173702 651.441650,9.520728 
	C639.912537,9.520728 629.167969,9.520728 618.111572,9.520728 
	C618.111572,17.846891 618.111572,25.819113 618.111572,33.791332 
	C618.111511,58.274540 618.135132,82.757782 618.097351,107.240929 
	C618.085571,114.868042 614.639526,119.311241 607.999023,120.573891 
	C598.823730,122.318504 592.677002,116.582916 592.653870,105.942177 
	C592.587830,75.629784 592.630737,45.317150 592.630737,15.004610 
	C592.630737,13.222954 592.630798,11.441298 592.630798,9.594545 
	C581.157776,9.594545 570.307190,9.594545 559.224670,9.594545 
	C559.224670,29.668983 559.134277,49.312477 559.253906,68.954697 
	C559.346069,84.100708 559.701965,99.245117 560.033569,115.251129 
M891.846985,46.586666 
	C891.937805,48.025642 892.028564,49.464619 892.115723,50.846855 
	C903.193542,50.846855 913.911560,50.846855 924.938110,50.846855 
	C924.938110,47.673183 924.996826,44.863316 924.928589,42.056534 
	C924.488281,23.934914 915.292542,12.299746 897.794006,7.911196 
	C886.303833,5.029512 874.658813,5.011762 863.084961,7.128556 
	C844.617065,10.506241 833.693726,20.827604 832.756042,39.570511 
	C831.543457,63.808823 832.117432,88.179955 832.943726,112.459137 
	C833.379395,125.262177 841.350952,134.079041 853.158752,138.603531 
	C869.976624,145.047729 887.133728,144.975739 903.968262,138.667923 
	C914.803101,134.608200 922.743408,126.735947 923.847107,115.019066 
	C925.337646,99.196594 925.125305,83.213707 925.648499,67.149811 
	C909.443604,67.149811 894.232361,67.149811 879.053467,67.149811 
	C879.053467,73.559639 879.053467,79.625862 879.053467,86.135895 
	C883.469116,86.135895 887.563599,86.135895 892.073059,86.135895 
	C892.073059,93.037590 892.126221,99.495300 892.060120,105.951797 
	C891.970581,114.702080 887.469177,119.166405 878.781738,119.250916 
	C869.793335,119.338341 865.038940,114.887932 864.937439,105.998039 
	C864.825256,96.168701 864.909607,86.337105 864.911987,76.506493 
	C864.914734,65.342949 864.797424,54.177490 864.969360,43.016518 
	C865.087524,35.344212 868.679565,30.976833 875.280884,29.752235 
	C885.968201,27.769636 891.725647,33.294300 891.846985,46.586666 
M44.528805,112.492737 
	C44.312653,107.569870 44.096500,102.646996 43.876995,97.647751 
	C32.083115,97.647751 20.677767,97.647751 9.059002,97.647751 
	C9.059002,102.616203 8.729173,107.295250 9.120675,111.913147 
	C10.308266,125.921112 17.118023,136.223465 30.483282,141.197937 
	C47.819065,147.650177 65.412018,147.590530 82.761078,141.173889 
	C92.535553,137.558762 99.680069,130.660294 101.796028,120.300423 
	C103.272903,113.069473 103.377487,105.460350 103.277740,98.031120 
	C103.164040,89.561523 98.876305,82.694733 92.493904,77.409866 
	C87.771980,73.499939 82.688728,69.948769 77.446518,66.764450 
	C70.910202,62.794044 63.934551,59.550240 57.364391,55.630951 
	C53.538288,53.348576 49.823811,50.681503 46.620979,47.602970 
	C42.806484,43.936497 42.468498,37.335716 45.127499,32.749973 
	C47.653194,28.394119 53.135014,26.533062 59.255619,27.953526 
	C64.319298,29.128698 67.415695,33.042736 67.728905,38.908878 
	C67.876160,41.666958 67.754128,44.439415 67.754128,47.310982 
	C78.997902,47.310982 89.575974,47.310982 100.689735,47.310982 
	C100.689735,44.394783 100.719673,41.776714 100.684906,39.159504 
	C100.450768,21.535746 92.265457,11.090209 75.147865,7.083433 
	C62.642380,4.156227 50.012352,4.156608 37.518768,7.136915 
	C25.740547,9.946573 15.852474,15.842945 12.138347,28.045336 
	C6.430380,46.798283 10.159706,61.281441 25.041973,72.002022 
	C29.086815,74.915764 33.295189,77.628143 37.582397,80.173782 
	C44.021637,83.997238 50.791946,87.293915 57.044628,91.389862 
	C61.156971,94.083740 65.178261,97.336662 68.206718,101.158318 
	C71.956787,105.890572 71.263062,111.645203 68.401299,116.715294 
	C65.673981,121.547165 60.729546,122.285583 55.724545,121.852089 
	C50.334187,121.385223 46.198227,118.972893 44.528805,112.492737 
M147.871780,16.312557 
	C140.222870,57.512959 132.573959,98.713356 124.818970,140.485138 
	C136.370483,140.485138 147.330811,140.565216 158.284760,140.338531 
	C159.195770,140.319672 160.671127,138.323090 160.862640,137.087097 
	C164.993073,110.430061 168.972931,83.749710 172.993103,57.075562 
	C174.647293,46.099789 176.327637,35.127956 177.996063,24.154327 
	C178.408920,24.146868 178.821777,24.139406 179.234634,24.131945 
	C184.923279,62.746986 190.611923,101.362030 196.312607,140.058746 
	C208.117462,140.058746 219.633789,140.058746 231.428101,140.058746 
	C231.269135,138.788788 231.208817,137.980713 231.062958,137.188370 
	C223.406433,95.599342 215.708054,54.017918 208.153381,12.410399 
	C207.619858,9.472024 206.218918,9.103063 203.753632,9.130256 
	C195.088898,9.225837 186.422485,9.166824 177.756699,9.166699 
	C168.288467,9.166564 158.820236,9.166669 149.214401,9.166669 
	C148.742172,11.563723 148.357941,13.514139 147.871780,16.312557 
M436.025879,116.232719 
	C438.701721,129.447723 446.905182,137.798782 459.461853,141.700623 
	C474.805481,146.468430 490.333618,146.449570 505.694702,141.571701 
	C513.901184,138.965775 520.591370,134.163330 524.789856,126.421486 
	C534.400757,108.699280 529.582397,85.298645 513.264038,73.648918 
	C505.308838,67.969696 496.367279,63.687275 487.995880,58.570221 
	C482.903748,55.457626 477.739716,52.328598 473.174896,48.526348 
	C468.909454,44.973469 468.347168,38.098000 470.987579,33.389000 
	C473.388763,29.106663 478.829926,27.040956 484.510162,28.255255 
	C489.925781,29.412977 492.984253,33.176567 493.354034,39.402294 
	C493.517303,42.151272 493.381531,44.918011 493.381531,47.637894 
	C504.641174,47.637894 515.075562,47.637894 525.891235,47.637894 
	C525.891235,43.743519 526.045105,40.109665 525.863831,36.492607 
	C525.181213,22.872490 518.500977,13.353005 505.483887,9.244162 
	C489.324463,4.143418 472.950134,4.201395 456.923035,10.019034 
	C447.123962,13.575980 440.499969,20.480354 437.591858,30.726389 
	C432.781586,47.674244 437.300720,61.740276 451.501831,72.204124 
	C456.844208,76.140572 462.685883,79.413750 468.386566,82.845459 
	C473.804779,86.107094 479.476990,88.965118 484.764618,92.418427 
	C487.927826,94.484299 490.894989,97.069221 493.364685,99.926918 
	C497.078827,104.224602 497.087891,112.269295 493.931335,116.796234 
	C491.025146,120.964172 484.049072,122.674606 477.963257,120.711365 
	C472.689545,119.010094 470.166351,115.031418 470.097229,108.218613 
	C470.060730,104.617195 470.090759,101.015091 470.090759,97.516922 
	C458.056366,97.516922 446.685486,97.516922 434.820068,97.516922 
	C435.205963,103.783615 435.563171,109.584602 436.025879,116.232719 
M676.667847,223.185913 
	C685.566528,209.089081 694.465271,194.992249 703.585938,180.543732 
	C672.204041,180.543732 641.835999,180.543732 610.839844,180.543732 
	C626.161560,205.578293 641.163452,230.090302 656.447937,255.063980 
	C663.263062,244.297348 669.756958,234.038269 676.667847,223.185913 
M645.500000,461.838989 
	C664.664185,461.838989 683.828308,461.838989 703.871094,461.838989 
	C687.718323,436.329041 672.242371,411.888031 656.446167,386.941193 
	C641.119629,411.996979 626.073486,436.594391 610.631470,461.838959 
	C622.579407,461.838959 633.539734,461.838959 645.500000,461.838989 
z" />
	<path fill="rgb(125,124,187)" opacity="1.000000" stroke="none" d="
M9.280727,181.040680 
	C10.814209,180.768112 12.347099,180.262085 13.881259,180.258209 
	C34.707775,180.205566 55.535309,180.316910 76.360283,180.130234 
	C79.861290,180.098877 81.657845,181.367126 83.445770,184.193878 
	C112.902855,230.766144 142.468414,277.269806 172.016434,323.784546 
	C172.887573,325.155884 173.832870,326.480103 175.592194,329.080627 
	C175.592194,278.698639 175.592194,229.720459 175.592194,180.484924 
	C199.297302,180.484924 222.378265,180.484924 245.778900,180.484924 
	C245.778900,274.171692 245.778900,367.702271 245.778900,461.832306 
	C244.086288,461.832306 242.474838,461.832275 240.863403,461.832275 
	C221.369659,461.832458 201.874207,461.698059 182.383606,461.945953 
	C178.464966,461.995758 176.509567,460.575531 174.535522,457.443359 
	C143.821671,408.710571 112.987938,360.053314 82.165787,311.388824 
	C81.470421,310.290955 80.586815,309.312317 79.140366,308.426941 
	C78.326576,310.041931 78.021606,311.507996 78.020836,312.974182 
	C77.995918,360.733643 77.991600,408.493103 78.038399,456.252533 
	C78.039948,457.828827 78.604820,459.404602 78.907097,460.980621 
	C77.708763,461.264404 76.511024,461.792694 75.311996,461.795624 
	C54.670815,461.846191 34.029228,461.871521 13.388701,461.744751 
	C11.986097,461.736145 10.591177,460.477448 9.438700,459.072388 
	C9.789803,457.027893 9.986672,455.711121 9.986884,454.394379 
	C10.001318,364.882660 10.003698,275.370911 9.969983,185.859207 
	C9.969378,184.252945 9.520460,182.646851 9.280727,181.040680 
z" />
	<path fill="rgb(125,124,187)" opacity="1.000000" stroke="none" d="
M348.003296,393.166687 
	C378.124146,393.166687 407.745911,393.166687 437.631714,393.166687 
	C437.631714,416.103485 437.631714,438.542999 437.631714,461.409058 
	C379.341064,461.409058 320.966583,461.409058 262.242188,461.409058 
	C262.242188,367.924347 262.242188,274.369446 262.242188,180.516235 
	C320.557800,180.516235 378.821686,180.516235 437.492340,180.516235 
	C437.492340,203.016129 437.492340,225.565308 437.492340,248.686127 
	C402.717529,248.686127 367.817383,248.686127 332.632233,248.686127 
	C332.632233,261.329315 332.632233,273.403870 332.632233,285.882263 
	C367.638123,285.882263 402.405975,285.882263 437.535034,285.882263 
	C437.535034,308.841858 437.535034,331.402374 437.535034,354.570007 
	C402.654785,354.570007 367.746948,354.570007 332.594666,354.570007 
	C332.594666,367.603729 332.594666,380.033630 332.594666,393.166656 
	C337.652130,393.166656 342.578156,393.166656 348.003296,393.166687 
z" />
	<path fill="rgb(125,124,187)" opacity="1.000000" stroke="none" d="
M923.989563,248.614944 
	C904.166565,248.691071 884.343506,248.768326 864.520508,248.841949 
	C861.864136,248.851822 859.207642,248.843323 855.942993,248.843323 
	C855.942993,319.726349 855.942993,390.419220 855.942993,461.473328 
	C832.116882,461.473328 808.898132,461.473328 785.105835,461.473328 
	C785.105835,390.720612 785.105835,320.018982 785.105835,248.933502 
	C761.941284,248.933502 739.343506,248.933502 716.368530,248.933502 
	C716.368530,225.999481 716.368530,203.447083 716.368530,180.258804 
	C785.225891,180.258804 854.149841,180.258804 923.535889,180.798218 
	C923.995117,203.763412 923.992310,226.189178 923.989563,248.614944 
z" />
	<path fill="rgb(59,58,92)" opacity="1.000000" stroke="none" d="
M524.749756,310.271423 
	C498.398254,267.048126 472.223358,224.143829 445.651001,180.588089 
	C447.630432,180.423187 449.006378,180.209808 450.382507,180.208633 
	C473.874695,180.188477 497.367065,180.240616 520.858826,180.139725 
	C523.982422,180.126328 526.041992,180.889618 527.816711,183.707336 
	C555.765808,228.082733 583.783691,272.415039 611.951294,316.651886 
	C614.096252,320.020569 613.912415,322.241058 611.847900,325.500824 
	C583.967041,369.523499 556.211487,413.625702 528.534302,457.776825 
	C526.630676,460.813446 524.572388,461.960663 520.949219,461.933502 
	C497.624969,461.758636 474.298767,461.843994 450.973206,461.843933 
	C449.505920,461.843933 448.038635,461.843933 445.849213,461.843933 
	C446.779480,460.008759 447.333893,458.702576 448.064758,457.503967 
	C474.931641,413.441956 501.773438,369.364471 528.778076,325.386993 
	C530.833191,322.040161 531.038879,319.522003 528.646362,316.500000 
	C527.209900,314.685669 526.153503,312.570404 524.749756,310.271423 
z" />
	<path fill="rgb(125,124,187)" opacity="1.000000" stroke="none" d="
M290.932434,88.999565 
	C290.932434,106.286270 290.932434,123.072929 290.932434,140.177155 
	C279.611023,140.177155 269.031189,140.177155 257.680267,140.177155 
	C258.602478,96.652969 259.523682,53.178539 260.450470,9.439323 
	C278.514221,9.439323 296.099609,9.439323 314.089417,9.439323 
	C319.350098,41.953217 324.601959,74.412392 329.853790,106.871567 
	C330.291656,106.880814 330.729523,106.890060 331.167389,106.899307 
	C336.410339,74.496849 341.653259,42.094395 346.934509,9.455231 
	C364.778290,9.455231 382.346802,9.455231 400.520752,9.455231 
	C401.480957,52.943382 402.438690,96.320496 403.405365,140.102570 
	C392.332031,140.102570 381.629761,140.102570 370.132690,140.102570 
	C370.132690,101.736664 370.132690,63.428383 370.132690,25.120104 
	C369.637634,25.076679 369.142548,25.033257 368.647491,24.989832 
	C361.524628,63.295536 354.401764,101.601242 347.173218,140.475342 
	C336.548615,140.475342 326.113281,140.562271 315.685577,140.320358 
	C314.792511,140.299637 313.410187,138.195465 313.163391,136.887741 
	C307.360687,106.141655 301.686127,75.371384 295.979919,44.607067 
	C294.720154,37.815285 293.429535,31.029222 292.153107,24.240530 
	C291.746185,24.281446 291.339294,24.322361 290.932404,24.363277 
	C290.932404,45.742023 290.932404,67.120766 290.932434,88.999565 
z" />
	<path fill="rgb(125,124,187)" opacity="1.000000" stroke="none" d="
M797.818054,93.000031 
	C797.799438,108.157188 797.782532,122.814331 797.750183,137.471451 
	C797.749451,137.779053 797.569519,138.086243 797.357178,138.763718 
	C782.076660,138.763718 766.685242,138.763718 750.903198,138.763718 
	C740.303833,103.926788 729.663391,68.954887 719.022949,33.982979 
	C718.724609,34.007256 718.426270,34.031536 718.127930,34.055817 
	C718.731079,68.908722 719.334167,103.761627 719.941833,138.876770 
	C709.020508,138.876770 698.622803,138.876770 687.957275,138.876770 
	C687.957275,95.743462 687.957275,52.837894 687.957275,9.166038 
	C690.422485,9.166038 692.839844,9.166140 695.257202,9.166020 
	C707.250183,9.165429 719.249756,9.392519 731.232483,9.041511 
	C735.467407,8.917457 736.880005,10.445045 737.968872,14.253116 
	C746.887451,45.443066 756.022949,76.570999 765.103882,107.714493 
	C765.414062,108.778564 765.842407,109.808197 766.992371,110.735580 
	C766.414124,77.103386 765.835815,43.471199 765.251648,9.500579 
	C776.195068,9.500579 786.737427,9.500579 797.818054,9.500579 
	C797.818054,37.301098 797.818054,64.900566 797.818054,93.000031 
z" />
	<path fill="rgb(125,124,187)" opacity="1.000000" stroke="none" d="
M559.987061,114.820679 
	C559.701965,99.245117 559.346069,84.100708 559.253906,68.954697 
	C559.134277,49.312477 559.224670,29.668983 559.224670,9.594545 
	C570.307190,9.594545 581.157776,9.594545 592.630798,9.594545 
	C592.630798,11.441298 592.630737,13.222954 592.630737,15.004610 
	C592.630737,45.317150 592.587830,75.629784 592.653870,105.942177 
	C592.677002,116.582916 598.823730,122.318504 607.999023,120.573891 
	C614.639526,119.311241 618.085571,114.868042 618.097351,107.240929 
	C618.135132,82.757782 618.111511,58.274540 618.111572,33.791332 
	C618.111572,25.819113 618.111572,17.846891 618.111572,9.520728 
	C629.167969,9.520728 639.912537,9.520728 651.441650,9.520728 
	C651.441650,11.173702 651.441711,12.928881 651.441711,14.684058 
	C651.441833,44.663494 651.452209,74.642937 651.438721,104.622368 
	C651.428101,128.128815 641.319519,140.125687 618.177246,143.649750 
	C607.058289,145.342941 595.915894,145.047729 584.991028,142.039642 
	C571.208984,138.244858 562.476685,129.654724 559.987061,114.820679 
z" />
	<path fill="rgb(125,124,187)" opacity="1.000000" stroke="none" d="
M891.847046,46.117687 
	C891.725647,33.294300 885.968201,27.769636 875.280884,29.752235 
	C868.679565,30.976833 865.087524,35.344212 864.969360,43.016518 
	C864.797424,54.177490 864.914734,65.342949 864.911987,76.506493 
	C864.909607,86.337105 864.825256,96.168701 864.937439,105.998039 
	C865.038940,114.887932 869.793335,119.338341 878.781738,119.250916 
	C887.469177,119.166405 891.970581,114.702080 892.060120,105.951797 
	C892.126221,99.495300 892.073059,93.037590 892.073059,86.135895 
	C887.563599,86.135895 883.469116,86.135895 879.053467,86.135895 
	C879.053467,79.625862 879.053467,73.559639 879.053467,67.149811 
	C894.232361,67.149811 909.443604,67.149811 925.648499,67.149811 
	C925.125305,83.213707 925.337646,99.196594 923.847107,115.019066 
	C922.743408,126.735947 914.803101,134.608200 903.968262,138.667923 
	C887.133728,144.975739 869.976624,145.047729 853.158752,138.603531 
	C841.350952,134.079041 833.379395,125.262177 832.943726,112.459137 
	C832.117432,88.179955 831.543457,63.808823 832.756042,39.570511 
	C833.693726,20.827604 844.617065,10.506241 863.084961,7.128556 
	C874.658813,5.011762 886.303833,5.029512 897.794006,7.911196 
	C915.292542,12.299746 924.488281,23.934914 924.928589,42.056534 
	C924.996826,44.863316 924.938110,47.673183 924.938110,50.846855 
	C913.911560,50.846855 903.193542,50.846855 892.115723,50.846855 
	C892.028564,49.464619 891.937805,48.025642 891.847046,46.117687 
z" />
	<path fill="rgb(125,124,187)" opacity="1.000000" stroke="none" d="
M44.632210,112.895126 
	C46.198227,118.972893 50.334187,121.385223 55.724545,121.852089 
	C60.729546,122.285583 65.673981,121.547165 68.401299,116.715294 
	C71.263062,111.645203 71.956787,105.890572 68.206718,101.158318 
	C65.178261,97.336662 61.156971,94.083740 57.044628,91.389862 
	C50.791946,87.293915 44.021637,83.997238 37.582397,80.173782 
	C33.295189,77.628143 29.086815,74.915764 25.041973,72.002022 
	C10.159706,61.281441 6.430380,46.798283 12.138347,28.045336 
	C15.852474,15.842945 25.740547,9.946573 37.518768,7.136915 
	C50.012352,4.156608 62.642380,4.156227 75.147865,7.083433 
	C92.265457,11.090209 100.450768,21.535746 100.684906,39.159504 
	C100.719673,41.776714 100.689735,44.394783 100.689735,47.310982 
	C89.575974,47.310982 78.997902,47.310982 67.754128,47.310982 
	C67.754128,44.439415 67.876160,41.666958 67.728905,38.908878 
	C67.415695,33.042736 64.319298,29.128698 59.255619,27.953526 
	C53.135014,26.533062 47.653194,28.394119 45.127499,32.749973 
	C42.468498,37.335716 42.806484,43.936497 46.620979,47.602970 
	C49.823811,50.681503 53.538288,53.348576 57.364391,55.630951 
	C63.934551,59.550240 70.910202,62.794044 77.446518,66.764450 
	C82.688728,69.948769 87.771980,73.499939 92.493904,77.409866 
	C98.876305,82.694733 103.164040,89.561523 103.277740,98.031120 
	C103.377487,105.460350 103.272903,113.069473 101.796028,120.300423 
	C99.680069,130.660294 92.535553,137.558762 82.761078,141.173889 
	C65.412018,147.590530 47.819065,147.650177 30.483282,141.197937 
	C17.118023,136.223465 10.308266,125.921112 9.120675,111.913147 
	C8.729173,107.295250 9.059002,102.616203 9.059002,97.647751 
	C20.677767,97.647751 32.083115,97.647751 43.876995,97.647751 
	C44.096500,102.646996 44.312653,107.569870 44.632210,112.895126 
z" />
	<path fill="rgb(125,124,187)" opacity="1.000000" stroke="none" d="
M147.922729,15.888556 
	C148.357941,13.514139 148.742172,11.563723 149.214401,9.166669 
	C158.820236,9.166669 168.288467,9.166564 177.756699,9.166699 
	C186.422485,9.166824 195.088898,9.225837 203.753632,9.130256 
	C206.218918,9.103063 207.619858,9.472024 208.153381,12.410399 
	C215.708054,54.017918 223.406433,95.599342 231.062958,137.188370 
	C231.208817,137.980713 231.269135,138.788788 231.428101,140.058746 
	C219.633789,140.058746 208.117462,140.058746 196.312607,140.058746 
	C190.611923,101.362030 184.923279,62.746986 179.234634,24.131945 
	C178.821777,24.139406 178.408920,24.146868 177.996063,24.154327 
	C176.327637,35.127956 174.647293,46.099789 172.993103,57.075562 
	C168.972931,83.749710 164.993073,110.430061 160.862640,137.087097 
	C160.671127,138.323090 159.195770,140.319672 158.284760,140.338531 
	C147.330811,140.565216 136.370483,140.485138 124.818970,140.485138 
	C132.573959,98.713356 140.222870,57.512959 147.922729,15.888556 
z" />
	<path fill="rgb(125,124,187)" opacity="1.000000" stroke="none" d="
M435.973145,115.809158 
	C435.563171,109.584602 435.205963,103.783615 434.820068,97.516922 
	C446.685486,97.516922 458.056366,97.516922 470.090759,97.516922 
	C470.090759,101.015091 470.060730,104.617195 470.097229,108.218613 
	C470.166351,115.031418 472.689545,119.010094 477.963257,120.711365 
	C484.049072,122.674606 491.025146,120.964172 493.931335,116.796234 
	C497.087891,112.269295 497.078827,104.224602 493.364685,99.926918 
	C490.894989,97.069221 487.927826,94.484299 484.764618,92.418427 
	C479.476990,88.965118 473.804779,86.107094 468.386566,82.845459 
	C462.685883,79.413750 456.844208,76.140572 451.501831,72.204124 
	C437.300720,61.740276 432.781586,47.674244 437.591858,30.726389 
	C440.499969,20.480354 447.123962,13.575980 456.923035,10.019034 
	C472.950134,4.201395 489.324463,4.143418 505.483887,9.244162 
	C518.500977,13.353005 525.181213,22.872490 525.863831,36.492607 
	C526.045105,40.109665 525.891235,43.743519 525.891235,47.637894 
	C515.075562,47.637894 504.641174,47.637894 493.381531,47.637894 
	C493.381531,44.918011 493.517303,42.151272 493.354034,39.402294 
	C492.984253,33.176567 489.925781,29.412977 484.510162,28.255255 
	C478.829926,27.040956 473.388763,29.106663 470.987579,33.389000 
	C468.347168,38.098000 468.909454,44.973469 473.174896,48.526348 
	C477.739716,52.328598 482.903748,55.457626 487.995880,58.570221 
	C496.367279,63.687275 505.308838,67.969696 513.264038,73.648918 
	C529.582397,85.298645 534.400757,108.699280 524.789856,126.421486 
	C520.591370,134.163330 513.901184,138.965775 505.694702,141.571701 
	C490.333618,146.449570 474.805481,146.468430 459.461853,141.700623 
	C446.905182,137.798782 438.701721,129.447723 435.973145,115.809158 
z" />
	<path fill="rgb(125,124,187)" opacity="1.000000" stroke="none" d="
M676.459351,223.482559 
	C669.756958,234.038269 663.263062,244.297348 656.447937,255.063980 
	C641.163452,230.090302 626.161560,205.578293 610.839844,180.543732 
	C641.835999,180.543732 672.204041,180.543732 703.585938,180.543732 
	C694.465271,194.992249 685.566528,209.089081 676.459351,223.482559 
z" />
	<path fill="rgb(125,124,187)" opacity="1.000000" stroke="none" d="
M645.000000,461.838989 
	C633.539734,461.838959 622.579407,461.838959 610.631470,461.838959 
	C626.073486,436.594391 641.119629,411.996979 656.446167,386.941193 
	C672.242371,411.888031 687.718323,436.329041 703.871094,461.838989 
	C683.828308,461.838989 664.664185,461.838989 645.000000,461.838989 
z" />
	<path fill="rgb(125,124,187)" opacity="1.000000" stroke="none" d="
M9.160089,181.493256 
	C9.520460,182.646851 9.969378,184.252945 9.969983,185.859207 
	C10.003698,275.370911 10.001318,364.882660 9.986884,454.394379 
	C9.986672,455.711121 9.789803,457.027893 9.423381,458.665100 
	C9.108768,458.323639 9.008784,457.661682 9.008823,456.999725 
	C9.014285,365.315094 9.027037,273.630463 9.160089,181.493256 
z" />
	<path fill="rgb(125,124,187)" opacity="1.000000" stroke="none" d="
M79.084351,460.542236 
	C78.604820,459.404602 78.039948,457.828827 78.038399,456.252533 
	C77.991600,408.493103 77.995918,360.733643 78.020836,312.974182 
	C78.021606,311.507996 78.326576,310.041931 78.826546,308.332336 
	C79.219521,333.340820 79.306854,358.592804 79.323074,383.844818 
	C79.339394,409.264465 79.285011,434.684174 79.084351,460.542236 
z" />
	<path fill="rgb(125,124,187)" opacity="1.000000" stroke="none" d="
M924.390869,248.499466 
	C923.992310,226.189178 923.995117,203.763412 923.993042,180.899689 
	C924.379211,181.403748 925.109253,182.344849 925.111816,183.287964 
	C925.169739,204.508560 925.150024,225.729416 925.126343,246.950195 
	C925.125793,247.428238 924.908386,247.906067 924.390869,248.499466 
z" />
</svg>
